<?xml version="1.0" encoding="utf-8"?>
<!DOCTYPE svg PUBLIC "-//W3C//DTD SVG 1.0//EN" "http://www.w3.org/TR/2001/REC-SVG-20010904/DTD/svg10.dtd">
<svg version="1.0" xmlns="http://www.w3.org/2000/svg" width="230px" height="216px" viewBox="0 0 230 216" preserveAspectRatio="xMidYMid meet">
 <g fill="transparent">
  <path d="M0 108 l0 -108 115 0 115 0 0 108 0 108 -115 0 -115 0 0 -108z m138 96.6 c10.6 -2.3 24.4 -6.6 25.9 -8.2 0.3 -0.3 -0.3 -0.4 -1.4 -0.1 -7.1 2.1 -14.8 3.7 -19.8 4.3 l-5.8 0.7 0.3 -3.9 0.3 -3.8 12.3 -3.9 c6.8 -2.1 12.2 -4 12 -4.2 -0.2 -0.2 -3.3 0.4 -6.8 1.5 -25.8 7.7 -69 10.9 -92.4 6.9 -3.2 -0.6 -6 -0.8 -6.3 -0.6 -0.7 0.8 17.6 7.5 26.4 9.7 18.4 4.7 37.9 5.2 55.3 1.6z m-117.4 -20.6 c1.2 -3 2.5 -6.4 2.8 -7.4 0.4 -1.6 0.7 -1.7 2 -0.6 1.4 1.1 1.6 0.4 1.6 -6.5 0 -4.3 -0.2 -7.6 -0.4 -7.4 -2.4 2.4 -8.6 10.5 -8.6 11.1 0 0.5 0.6 0.8 1.4 0.8 1.2 0 1 1.1 -0.7 6 -1.2 3.3 -2.5 6 -2.8 6 -0.3 0 -1.3 -1.8 -2.2 -4 -1.1 -2.8 -2 -3.8 -3 -3.4 -1.2 0.4 -1.1 1.4 0.7 6 1.8 4.7 2.4 5.4 4.5 5.2 2 -0.2 3 -1.5 4.7 -5.8z m61.9 -1 c0.3 -0.5 1.7 -1 3.1 -1 1.9 0 2.5 -0.5 2.2 -1.7 -0.2 -1.3 -1.5 -1.9 -4.5 -2.1 -2.3 -0.2 -4.6 -0.9 -5.3 -1.7 -1.4 -1.7 -4.8 -0.8 -5.6 1.7 -0.9 2.9 2.2 5.8 6.2 5.8 1.8 0 3.6 -0.4 3.9 -1z m44 -3 c5.3 -1 9.8 -2 10 -2.2 0.2 -0.1 -0.1 -2.3 -0.5 -4.8 -0.5 -2.5 -0.9 -6.2 -1 -8.2 0 -3.6 0.2 -3.8 3 -3.8 1.7 0 4.7 1.1 6.8 2.5 2 1.3 5.4 3.1 7.4 3.9 3.6 1.6 3.7 1.5 5.6 -1.2 5.4 -7.9 8.7 -25.3 7.7 -41 l-0.6 -10.3 3.7 0.3 3.8 0.3 2.8 12.5 c1.5 6.9 3 13 3.2 13.7 0.4 0.8 1.6 0.8 4.8 0.1 2.4 -0.6 4.7 -1.4 5.1 -1.8 0.5 -0.4 -0.1 -4.6 -1.3 -9.3 -1.1 -4.7 -2 -10.3 -1.9 -12.4 0.4 -7.7 -3.1 -14.8 -8.4 -16.6 -1.4 -0.5 -1.8 -1.6 -1.5 -4.9 0.3 -4.2 0.4 -4.3 4.1 -4.6 2 -0.2 3.7 -0.8 3.7 -1.3 0 -0.6 -1.3 -0.8 -3 -0.5 -1.6 0.3 -4.3 0.8 -5.8 1.1 -2.8 0.6 -2.9 0.8 -2.4 5.5 0.4 4.3 0.1 5.3 -2.6 8.7 -2.3 2.9 -3.8 6.8 -6.1 15.8 -1.7 6.6 -4.5 15.9 -6.3 20.8 -3.2 8.5 -3.3 8.7 -6.5 8.7 -2.8 0 -4.4 -1.1 -10.5 -7.6 -4 -4.2 -8.4 -9.5 -9.7 -11.8 -3.5 -5.9 -6.7 -9.1 -11.4 -11.2 -2.3 -1 -4.5 -2.3 -4.9 -2.9 -1.3 -1.7 -0.9 -15 0.4 -16.3 0.7 -0.7 3.1 -1.2 5.4 -1.2 2.3 0 4.6 -0.6 5.1 -1.2 1.9 -2.4 3.4 -12.8 2.2 -15 -1.1 -2 -0.9 -5.2 0.7 -15 0.5 -3.1 0.3 -3.9 -2 -5.3 -4.8 -3.2 -16.5 -6.7 -19.9 -6 -5.5 1.2 -11.1 5.1 -13.5 9.4 -2 3.6 -2.8 4.1 -5.8 4.1 -7.9 0 -14.4 5.3 -14.4 11.9 0 2 1.4 6.5 3 9.9 2.3 4.9 3 7.8 3 12.3 0 3.2 0.3 5.9 0.8 5.9 1.6 0 5.3 -3.3 6.7 -6 2.1 -4.1 1.9 -7.2 -1 -12.6 -1.7 -3.1 -2.5 -6.3 -2.5 -9.5 l0 -4.9 3.5 0 c3.2 0 3.5 0.3 4.6 4.3 0.8 2.9 2.8 5.8 6.6 9.6 l5.5 5.4 -0.7 6.1 c-0.6 5.7 -3.6 12.6 -5.5 12.6 -0.4 0 -4 2.1 -7.9 4.7 -9.8 6.5 -11.3 9.6 -11.9 26 l-0.5 12.4 3.4 3.5 c4.5 4.6 6.5 4.5 7.3 -0.6 0.6 -3.7 0.9 -4 3.9 -4 2.7 0 3.9 0.9 7.7 5.7 6.4 8 6.9 9.2 7 14.7 l0 4.9 5.9 -0.7 c3.3 -0.4 10.3 -1.5 15.6 -2.6z m-115.5 -5.4 c0 -0.8 -0.4 -1.7 -0.8 -2 -1.3 -0.8 -3.5 1.1 -2.8 2.3 1 1.6 3.6 1.4 3.6 -0.3z m-2.4 -4.7 c0.3 -0.6 0.2 -1.5 -0.2 -1.9 -1.2 -1.2 -3.8 0.5 -3 1.9 0.9 1.4 2.3 1.4 3.2 0z m-2.3 -6.5 c-0.3 -0.8 -0.9 -1.4 -1.3 -1.4 -1.3 0 -2.2 1.9 -1.5 3 0.9 1.4 3.4 0 2.8 -1.6z m51 -3.9 c3.3 -0.6 3.7 -1 3.7 -3.7 0 -1.6 0.4 -3.8 1 -4.8 0.6 -1.1 0.7 -5.5 0.3 -10.9 -0.5 -8 -0.8 -9.1 -2.4 -9.1 -1.1 0 -1.9 -0.4 -1.9 -1 0 -0.5 -1.1 -1 -2.5 -1 -1.4 0 -2.5 0.5 -2.5 1 0 0.6 -1.1 1 -2.5 1 -1.4 0 -2.5 0.5 -2.5 1 0 0.6 -1.1 1 -2.5 1 -1.8 0 -2.5 0.5 -2.5 1.9 0 1.2 -0.9 2.1 -2.5 2.5 -1.8 0.5 -2.5 1.3 -2.5 3 0 1.3 -0.7 2.6 -1.5 3 -0.8 0.3 -1.5 1.6 -1.5 3 0 1.4 -0.4 2.8 -1 3.1 -1.1 0.7 -1.3 4.8 -0.4 8.2 0.5 1.8 1.5 2.3 5.3 2.6 5.3 0.5 12.9 0.1 18.4 -0.8z m-29.6 -56.2 c-1.4 -1.4 -1.7 -1.4 -3.2 0.1 -1.6 1.6 -1.6 1.8 0 3.6 1.8 2 1.8 2 3.3 -0.1 1.3 -1.8 1.3 -2.3 -0.1 -3.6z m120.9 -47.3 c1.2 -3 2.5 -6.4 2.8 -7.4 0.4 -1.6 0.8 -1.7 2 -0.7 1.2 1 1.5 0.4 1.8 -4.3 0.1 -3.1 0.1 -6.5 -0.2 -7.6 -0.4 -1.8 -1 -1.4 -4.5 3 -4.7 5.9 -5.2 7 -3.2 7 1.3 0 1.2 0.9 -0.6 6 -1.2 3.3 -2.5 6 -2.8 6 -0.3 0 -1.3 -1.8 -2.2 -4 -1.1 -2.8 -2 -3.8 -3 -3.4 -1.2 0.4 -1.1 1.4 0.7 6 1.8 4.7 2.4 5.4 4.5 5.2 2 -0.2 3 -1.5 4.7 -5.8z m33 -26.7 c-0.4 -0.9 -2.7 -1.3 -7.6 -1.3 l-7 0 0 6.4 c0 5.7 -0.2 6.5 -2 6.8 -1.4 0.2 0.7 1.9 7.2 5.5 l9.3 5.2 0.3 -10.6 c0.1 -5.9 0 -11.3 -0.2 -12z m-42.6 17.3 c0 -0.8 -0.4 -1.7 -0.8 -2 -1.3 -0.8 -3.5 1.1 -2.8 2.3 1 1.6 3.6 1.4 3.6 -0.3z m-2.4 -4.7 c0.3 -0.6 0.2 -1.5 -0.2 -1.9 -1.2 -1.2 -3.8 0.5 -3 1.9 0.9 1.4 2.3 1.4 3.2 0z m-2.3 -6.5 c-0.3 -0.8 -0.9 -1.4 -1.3 -1.4 -1.3 0 -2.2 1.9 -1.5 3 0.9 1.4 3.4 0 2.8 -1.6z m-2.3 -11.8 c0 -0.2 -3.6 -2.5 -8 -5.1 -7.5 -4.4 -8.3 -4.6 -11 -3.5 -4.7 2 -4.4 2.7 0.9 2.2 4.2 -0.4 5.7 0 11.2 3.2 6.7 3.8 6.9 3.8 6.9 3.2z"/>
 </g>
 <g fill="#d71316">
  <path d="M86.5 207.5 c-14.1 -2.9 -21.4 -5.4 -35 -12 -10.5 -5.2 -22.8 -12.5 -22.1 -13.2 0.2 -0.2 5.5 1.2 11.7 3 28.4 8.6 55.7 9.5 90.9 3.1 24.6 -4.5 51.1 -13.7 74.6 -25.8 6.8 -3.5 12.4 -6 12.4 -5.6 0 1.8 -15.4 18.2 -22.5 23.9 -18.6 14.9 -34.8 22.6 -57.4 27.1 -14.5 2.9 -37 2.7 -52.6 -0.5z m68.5 -13 c9.5 -2.5 20.8 -7.1 29.3 -12.1 8.1 -4.6 17.7 -11.2 17.7 -12.1 0 -0.2 -0.3 -0.2 -0.7 0 -0.5 0.2 -4 2.3 -8 4.6 -10.8 6.2 -30 14.6 -41.5 18.1 -5.7 1.8 -10.7 3.5 -11.1 4 -1 0.9 5.6 -0.2 14.3 -2.5z"/>
  <path d="M70.8 185.3 c-0.8 -1 -1.8 -2.6 -2.1 -3.5 -0.9 -2.6 1.2 -8.8 2.9 -8.8 2.5 0 1.3 -1.6 -5.1 -6.5 -4.6 -3.6 -6.4 -4.5 -8 -3.8 -1.1 0.4 -6.9 0.8 -13 0.9 -6 0 -12.3 0.4 -13.9 0.9 -2.6 0.7 -2.7 0.6 -1.7 -1.3 1.5 -2.9 1.4 -3.2 -1.4 -3.2 -3 0 -3.1 -1 -0.6 -4.1 1.7 -2.2 1.7 -2.4 0.2 -3.5 -1.4 -1.1 -1.3 -1.5 1.2 -4.2 1.8 -1.9 2.5 -3.2 1.8 -3.6 -1.8 -1.1 -1.3 -2.6 1.4 -3.8 1.6 -0.7 2.5 -1.9 2.5 -3.4 0 -1.7 0.7 -2.5 2.4 -3 1.5 -0.3 2.6 -1.4 2.8 -2.7 0.2 -1.6 0.9 -2.1 2.6 -1.9 1.4 0.2 2.2 -0.2 2.2 -1.2 0 -2.1 1.8 -3 3.5 -1.6 1 0.8 1.5 0.9 1.5 0.2 0 -0.6 0.8 -1.8 1.7 -2.7 1.5 -1.6 1.8 -1.6 2.9 -0.1 1 1.4 1.3 1.5 2.4 0.1 1.9 -2.3 4 -1.8 4 1 0 2.4 0.1 2.5 2.3 1.1 l2.2 -1.5 0.2 13.2 c0.2 8.1 -0.2 14.3 -0.9 16 -1 2.5 -0.8 3.1 1.8 5.8 5.4 5.8 16.4 15.1 15.8 13.5 -1.1 -3 3.1 -1.8 6.9 1.9 3.8 3.7 4.6 6 2.5 6.8 -1 0.3 -1 0.8 0.1 2.1 1.9 2.3 0.6 3.2 -2.9 1.9 -1.8 -0.7 -3.2 -0.7 -3.6 -0.2 -0.3 0.5 -3.3 0.9 -6.8 0.9 -4.8 0 -6.7 -0.4 -7.8 -1.7z"/>
  <path d="M101.2 175.5 c-0.7 -1.4 -3.3 -5.2 -5.9 -8.5 -5 -6.2 -6.1 -6.2 -6.2 0.1 -0.1 3.6 -0.5 3.7 -5.7 2.4 -2.8 -0.7 -5.8 -2.4 -7.9 -4.6 l-3.3 -3.4 0.8 -15.2 c1 -19.5 2.1 -21.9 12.1 -28.6 3.9 -2.6 7.5 -4.7 7.9 -4.7 1.6 0 4.9 -6.6 5.1 -10.1 0.3 -3.1 -0.4 -4.2 -4.8 -8.5 -3.6 -3.4 -5.5 -6.2 -6.4 -9.4 -0.8 -2.9 -1.4 -3.8 -1.7 -2.7 -0.2 1 0.9 4.4 2.5 7.4 4.7 9.4 3 19.1 -4 23.3 -4.4 2.7 -14.7 2.6 -14.7 -0.1 0 -0.5 0.9 -0.9 2 -0.9 4.8 0 5.2 -7.2 0.9 -16.4 -3.8 -8.1 -4.3 -17.2 -1.2 -21.5 2.6 -3.5 7.9 -6.1 12.5 -6.1 3.3 0 3.9 -0.5 6 -4.1 5.1 -9 16.8 -12.1 29.6 -7.6 4 1.4 8.4 3.2 9.7 4.1 3.3 2.2 4.1 7.3 2 13.5 -1.7 5.3 -1.3 7.2 2.4 11.4 1.4 1.7 1.4 2 -0.2 3.2 -1 0.7 -2 1.9 -2.1 2.7 -0.2 0.7 -0.6 3.1 -1.1 5.3 -1.1 5.5 -2.1 6.5 -6.9 6.5 -5.3 0 -6.6 1.3 -6.6 6.4 0 5.1 0.5 5.7 5.7 8 4.7 2.1 7.9 5.3 11.4 11.2 2.3 3.9 16.8 20 17.3 19.2 1.4 -1.8 6.4 -16.8 9.2 -27.7 2.6 -10.2 4.2 -14.5 6.5 -17.3 2.8 -3.6 2.9 -3.9 1.8 -8.3 -0.6 -2.5 -1 -4.8 -0.8 -5 0.3 -0.2 5.5 -1.2 11.7 -2.3 11.1 -1.9 11.2 -1.9 11.2 0 0 1.1 -0.9 2.2 -2 2.5 -2.8 0.8 -2.6 4.9 0.5 7.7 3 2.8 3.1 3.6 0.6 3.6 -1.1 0 -2.9 -1.4 -4.1 -3.1 -1.5 -2 -2.9 -2.9 -4.3 -2.7 -2.7 0.4 -3.4 2.6 -1 3.5 2.6 0.9 8.5 7.1 7.8 8.2 -0.3 0.5 -0.1 1.2 0.4 1.5 0.5 0.3 0.9 3.7 0.8 7.4 0 4.2 0.9 10.4 2.4 16 2.1 8.1 2.2 9.3 0.9 10.6 -2.7 2.5 -15.2 4.7 -16.3 2.9 -0.3 -0.5 -1.7 -6.4 -3.2 -13.3 -1.5 -6.9 -3.1 -12.8 -3.4 -13.2 -0.4 -0.5 -0.5 3.5 -0.3 8.7 0.8 16.9 -3.4 36.7 -8.8 42.5 -2.8 3 -2.8 3 -7.5 1.5 -2.7 -0.8 -7.1 -2.8 -9.8 -4.5 l-4.9 -3.1 0.6 2.6 c0.7 2.8 0.1 3.2 -1.9 1.1 -2.3 -2.3 -2.8 -6.2 -1.5 -13.5 1.3 -6.8 1.2 -7 -1.4 -11.6 -2 -3.3 -3.2 -4.5 -4.4 -4 -0.8 0.3 -5.8 0.9 -10.9 1.2 l-9.3 0.6 0.8 4.1 c0.4 2.3 0.7 8.6 0.7 14.1 0 8.1 -0.4 10.9 -2.2 14.8 -2.5 5.4 -5.3 6.2 -7.1 2.2z m77 -62 c-0.4 -4.6 -0.8 -5 -3.6 -3.9 -1.1 0.4 -1.6 1.9 -1.6 4.5 0 3.6 0.2 3.9 2.8 3.9 2.6 0 2.7 -0.2 2.4 -4.5z"/>
  <path d="M203.8 113.1 l0.3 -44 -2.3 -1.2 c-1.3 -0.6 -12.3 -6.8 -24.5 -13.7 l-22.3 -12.6 0 -4 0 -4.1 -2.3 2.8 -2.3 2.9 -17.1 -9.6 c-9.4 -5.3 -17.4 -9.6 -17.9 -9.6 -0.9 0 -76.3 37.8 -77.9 39 -4.4 3.4 -29.7 12.9 -27 10.2 0.6 -0.6 24.4 -14.4 52.9 -30.7 43.8 -25 52.3 -29.5 54 -28.7 1.2 0.6 12 7.1 24.1 14.6 l22 13.6 0.3 -6.5 0.3 -6.6 10.2 0.3 10.2 0.3 0.3 13 0.3 13 16.6 10 c9.2 5.5 17.6 10.8 18.7 11.7 2 1.6 1.8 1.6 -3.3 0.3 -3 -0.8 -5.8 -1.2 -6.3 -0.9 -0.4 0.3 -0.8 18.7 -0.8 40.9 l0 40.4 -2.2 1.5 c-1.2 0.9 -2.7 1.6 -3.3 1.6 -0.7 0 -0.9 -14.3 -0.7 -43.9z"/>
  <path d="M25.7 128.5 c-0.3 -1.1 -0.9 -5.1 -1.3 -9 -0.9 -8.9 -3.5 -11.9 -11.2 -13 -2.9 -0.4 -5.2 -1 -5.2 -1.5 0 -0.4 2.2 -1 4.9 -1.3 8.6 -1 10.5 -3.2 11.7 -13.9 1.2 -10.7 2 -10.9 3.1 -0.8 1.2 10.8 3 13.3 10.2 14.5 2.3 0.4 4.1 1 4.1 1.5 0 0.4 -2.3 1.3 -5.1 2 -6.5 1.6 -7.8 3.7 -9.3 14.8 -0.8 5.3 -1.5 7.9 -1.9 6.7z"/>
  <path d="M47.4 88.5 c-0.8 -3.3 -1.5 -4.2 -4.1 -4.9 l-3.1 -1 3.1 -1.5 c2.1 -1.1 3.4 -2.7 4.1 -5.1 l0.9 -3.5 0.7 3.3 c0.9 4 1.3 4.4 5.3 5.9 3.1 1.1 3.1 1.1 0.6 1.2 -3.2 0.1 -4.9 2 -5.8 6.4 l-0.7 3.2 -1 -4z"/>
 </g>
 <g fill="#e93b38">
  <path d="M125 209 c0 -0.5 0.7 -1 1.5 -1 0.8 0 1.5 0.5 1.5 1 0 0.6 -0.7 1 -1.5 1 -0.8 0 -1.5 -0.4 -1.5 -1z"/>
  <path d="M138 207 c0 -0.5 0.7 -1 1.5 -1 0.8 0 1.5 0.5 1.5 1 0 0.6 -0.7 1 -1.5 1 -0.8 0 -1.5 -0.4 -1.5 -1z"/>
  <path d="M147 205.1 c0 -1.1 5 -2.4 5.8 -1.6 0.8 0.8 -1.9 2.5 -4 2.5 -1 0 -1.8 -0.4 -1.8 -0.9z"/>
  <path d="M161.6 201.3 c-1.1 -1.1 -0.6 -2.3 0.9 -2.3 0.8 0 1.5 0.4 1.5 0.9 0 1.3 -1.6 2.2 -2.4 1.4z"/>
  <path d="M134.8 197.8 c0.9 -0.9 1.5 -0.9 2.4 0 0.9 0.9 0.7 1.2 -1.2 1.2 -1.9 0 -2.1 -0.3 -1.2 -1.2z"/>
  <path d="M175.6 193.4 c-0.8 -2 4 -4.2 5.6 -2.6 0.9 0.9 0.8 1.2 -0.5 1.2 -0.9 0 -1.7 0.4 -1.7 0.9 0 1.6 -2.8 2 -3.4 0.5z"/>
  <path d="M101.5 180.9 c0 -3.7 0.5 -5.9 1.7 -7.1 5 -5.1 5.9 -20.3 1.9 -32 -3.3 -9.7 -12.2 -21 -17.6 -22.4 -2 -0.5 -2.3 -0.9 -1.4 -2 0.6 -0.8 1.8 -1.4 2.6 -1.4 3 0 11.3 7.2 16.3 14.1 4.4 6.1 5.4 6.9 8.3 6.9 3.9 0 14.8 -1.7 15.5 -2.5 0.6 -0.6 -0.8 -3.6 -3.9 -8.5 l-2.3 -3.5 2.3 2 c3.1 2.7 10.8 13.1 13.2 17.6 1.6 3.2 1.7 4.5 0.8 10 -1.4 8.2 -1.3 10.9 0.6 20.4 0.9 4.2 1.5 7.9 1.3 8.1 -1 1 -22.4 4.6 -30.3 5.1 l-9.1 0.6 0.1 -5.4z"/>
  <path d="M178 145 c0 -0.5 0.7 -1 1.5 -1 0.8 0 1.5 0.5 1.5 1 0 0.6 -0.7 1 -1.5 1 -0.8 0 -1.5 -0.4 -1.5 -1z"/>
  <path d="M170 117.9 c0 -2 -0.3 -5.1 -0.6 -6.8 -0.6 -2.8 -0.4 -3.2 2.9 -4.6 2 -0.8 4.8 -1.5 6.2 -1.5 2.3 0 2.5 0.4 2.5 4.3 0 5 2.2 8.7 5.3 8.7 1.6 0 2.3 0.6 2.3 1.9 0 1.5 -0.4 1.7 -1.3 1 -0.8 -0.7 -2.9 -0.7 -6.5 0 -2.9 0.6 -6.5 1 -8 0.9 -2.5 -0.2 -2.8 -0.6 -2.8 -3.9z"/>
  <path d="M78 114 c0 -0.5 0.7 -1 1.5 -1 0.8 0 1.5 0.5 1.5 1 0 0.6 -0.7 1 -1.5 1 -0.8 0 -1.5 -0.4 -1.5 -1z"/>
  <path d="M34.7 106.5 c0.3 -0.8 1.3 -1.5 2.2 -1.5 1.4 0 1.4 -0.2 0.1 -1.1 -1.2 -0.9 -1.2 -1 0.3 -0.5 1 0.3 3 0.6 4.3 0.6 1.3 0 2.4 0.5 2.4 1 0 0.6 -1.1 1 -2.4 1 -1.4 0 -3.6 0.4 -5 1 -2 0.7 -2.4 0.6 -1.9 -0.5z"/>
 </g>
</svg>